<svg version="1.2" xmlns="http://www.w3.org/2000/svg" viewBox="0 0 15 15" width="15" height="15">
	<title>search</title>
	<style>
		.s0 { fill: #d9d9d4 } 
	</style>
	<path class="s0" d="m14 12.4l-2.8-2.6q0.3-0.4 0.6-0.8 0.2-0.5 0.3-1 0.2-0.4 0.2-0.9 0.1-0.5 0.1-1 0-0.6-0.2-1.2-0.1-0.6-0.3-1.2-0.3-0.5-0.6-1-0.4-0.5-0.8-0.9c-1.2-1.1-2.8-1.7-4.4-1.7q-0.6 0-1.2 0.2-0.6 0.1-1.2 0.4-0.5 0.2-1 0.6-0.5 0.3-0.9 0.8-0.4 0.4-0.7 0.9-0.4 0.5-0.6 1.1-0.2 0.5-0.3 1.1-0.1 0.6-0.1 1.2c0.1 1.7 0.8 3.2 2 4.3 1.2 1.1 2.7 1.7 4.3 1.7q0.5 0 1-0.1 0.4-0.1 0.8-0.2 0.5-0.2 0.9-0.4 0.4-0.2 0.7-0.5l2.8 2.7q0.1 0 0.2 0.1 0.1 0 0.1 0.1 0.1 0 0.2 0 0.1 0 0.2 0 0.1 0 0.2 0 0.1 0 0.2-0.1 0.1 0 0.2-0.1 0.1 0 0.1-0.1 0.2-0.1 0.2-0.3 0.1-0.2 0.1-0.4 0-0.2-0.1-0.4-0.1-0.2-0.2-0.3zm-10.6-3.1q-0.3-0.3-0.5-0.6-0.3-0.4-0.4-0.7-0.2-0.4-0.3-0.8-0.1-0.4-0.1-0.8c0-1.1 0.4-2.2 1.1-3 0.8-0.8 1.8-1.3 2.9-1.3h0.1q0.4 0 0.8 0.1 0.4 0 0.7 0.2 0.4 0.1 0.8 0.3 0.3 0.3 0.6 0.5 0.3 0.3 0.5 0.6 0.3 0.4 0.4 0.7 0.2 0.4 0.3 0.8 0.1 0.4 0.1 0.8 0 0.9-0.3 1.6-0.3 0.8-0.8 1.4-0.6 0.6-1.3 0.9-0.8 0.4-1.6 0.4-0.4 0-0.8 0-0.4-0.1-0.8-0.3-0.4-0.1-0.7-0.3-0.4-0.2-0.7-0.5z"/>
</svg>